<svg data-v-fde0c5aa="" xmlns="http://www.w3.org/2000/svg" viewBox="0 0 300 300" class="font"><!----><defs data-v-fde0c5aa=""><!----></defs><rect data-v-fde0c5aa="" fill="#E1EFF7" x="0" y="0" width="300px" height="300px" class="logo-background-square"></rect><defs data-v-fde0c5aa=""><linearGradient data-v-fde0c5aa="" gradientTransform="rotate(25)" id="09bd8215-75cd-460b-9d8f-7f4872dbdaeb" x1="0%" y1="0%" x2="100%" y2="0%"><stop data-v-fde0c5aa="" offset="0%" stop-color="#006678" stop-opacity="1"></stop><stop data-v-fde0c5aa="" offset="100%" stop-color="#4FA8FF" stop-opacity="1"></stop></linearGradient></defs><g data-v-fde0c5aa="" id="510ebdc6-5fcf-4bd9-bb34-b17a4e47008c" fill="url(#09bd8215-75cd-460b-9d8f-7f4872dbdaeb)" transform="matrix(3.2037280597961453,0,0,3.2037280597961453,38.974806948301534,112.03582279694697)"><path d="M5.87 15.30L5.87 15.30Q6.41 15.54 6.41 15.95L6.41 15.95L6.41 15.95Q6.41 16.20 6.16 16.44L6.16 16.44L6.16 16.44Q5.91 16.67 5.59 16.77L5.59 16.77L5.59 16.77Q4.82 16.86 4.49 16.87L4.49 16.87L4.49 16.87Q2.62 17.02 1.85 17.16L1.85 17.16L1.85 17.16Q1.72 17.25 1.32 17.25L1.32 17.25L1.32 17.25Q0.92 17.25 0.62 16.88L0.62 16.88L0.62 16.88Q0.32 16.52 0.32 16.13L0.32 16.13L0.32 16.13Q0.32 15.97 0.36 15.83L0.36 15.83L2.16 8.75L2.16 8.75Q2.31 8.13 2.48 7.93L2.48 7.93L2.48 7.93Q2.66 7.73 3.12 7.73L3.12 7.73L3.12 7.73Q3.50 7.73 3.77 7.81L3.77 7.81L3.77 7.81Q4.05 7.90 4.06 8.06L4.06 8.06L4.06 8.06Q4.06 8.46 2.25 15.68L2.25 15.68L2.25 15.68Q3.49 15.47 5.39 15.34L5.39 15.34L5.87 15.30ZM8.37 16.55L8.37 16.55Q8.36 16.63 8.31 16.88L8.31 16.88L8.31 16.88Q8.26 17.12 8.07 17.22L8.07 17.22L8.07 17.22Q7.88 17.32 7.48 17.32L7.48 17.32L7.48 17.32Q7.01 17.32 6.80 17.22L6.80 17.22L6.80 17.22Q6.59 17.12 6.59 16.80L6.59 16.80L7.27 14.13L7.27 14.13Q7.83 11.82 8.01 11.19L8.01 11.19L7.66 10.77L7.66 10.77Q7.62 10.72 7.62 10.67L7.62 10.67L7.62 10.67Q7.62 10.53 7.92 10.44L7.92 10.44L7.92 10.44Q8.23 10.35 8.78 10.35L8.78 10.35L8.78 10.35Q9.27 10.35 9.44 10.62L9.44 10.62L9.44 10.62Q9.60 10.89 9.65 11.33L9.65 11.33L9.55 11.69L9.55 11.69Q10.00 11.14 10.59 10.79L10.59 10.79L10.59 10.79Q11.19 10.43 11.65 10.43L11.65 10.43L11.65 10.43Q12.25 10.43 12.59 10.64L12.59 10.64L12.59 10.64Q12.92 10.85 12.92 11.19L12.92 11.19L12.92 11.19Q12.92 11.48 12.72 11.80L12.72 11.80L12.72 11.80Q12.52 12.11 12.21 12.33L12.21 12.33L12.21 12.33Q11.90 12.54 11.61 12.57L11.61 12.57L11.61 12.57Q11.33 12.57 11.23 12.50L11.23 12.50L11.23 12.50Q11.13 12.43 11.13 12.29L11.13 12.29L11.21 11.83L11.21 11.83Q10.09 12.14 9.18 13.31L9.18 13.31L8.37 16.55ZM16.63 8.25L16.63 8.25Q16.59 8.50 16.42 8.97L16.42 8.97L16.42 8.97Q16.25 9.44 16.21 9.55L16.21 9.55L16.21 9.55Q15.83 10.51 15.72 10.99L15.72 10.99L15.72 10.99Q15.64 11.33 15.41 11.49L15.41 11.49L15.41 11.49Q15.18 11.65 14.77 11.65L14.77 11.65L14.77 11.65Q14.41 11.65 14.29 11.53L14.29 11.53L14.29 11.53Q14.18 11.41 14.18 11.12L14.18 11.12L14.18 10.92L14.64 8.47L14.64 8.47Q14.74 7.95 14.99 7.71L14.99 7.71L14.99 7.71Q15.25 7.48 15.75 7.48L15.75 7.48L15.75 7.48Q16.20 7.48 16.41 7.69L16.41 7.69L16.41 7.69Q16.63 7.90 16.63 8.25L16.63 8.25ZM22.36 11.66L22.36 11.66Q22.19 11.58 21.94 11.58L21.94 11.58L21.94 11.58Q21.31 11.58 20.68 11.83L20.68 11.83L20.68 11.83Q20.05 12.08 20.05 12.47L20.05 12.47L20.05 12.47Q20.05 12.75 20.30 12.92L20.30 12.92L20.30 12.92Q20.55 13.09 21.10 13.30L21.10 13.30L21.10 13.30Q21.69 13.54 22.05 13.75L22.05 13.75L22.05 13.75Q22.41 13.96 22.69 14.36L22.69 14.36L22.69 14.36Q22.96 14.76 22.96 15.37L22.96 15.37L22.96 15.37Q22.96 16.38 22.13 16.92L22.13 16.92L22.13 16.92Q21.29 17.46 19.89 17.46L19.89 17.46L19.89 17.46Q19.21 17.46 18.62 17.25L18.62 17.25L18.62 17.25Q18.03 17.04 17.69 16.71L17.69 16.71L17.69 16.71Q17.35 16.38 17.32 16.06L17.32 16.06L17.32 16.06Q17.32 15.72 17.61 15.51L17.61 15.51L17.61 15.51Q17.91 15.29 18.44 15.22L18.44 15.22L18.44 15.22Q18.45 15.50 18.73 15.74L18.73 15.74L18.73 15.74Q19.01 15.99 19.40 16.14L19.40 16.14L19.40 16.14Q19.78 16.28 20.06 16.28L20.06 16.28L20.06 16.28Q20.54 16.28 20.93 16.02L20.93 16.02L20.93 16.02Q21.32 15.76 21.32 15.41L21.32 15.41L21.32 15.41Q21.32 14.77 20.08 14.39L20.08 14.39L20.08 14.39Q19.28 14.15 18.85 13.64L18.85 13.64L18.85 13.64Q18.42 13.12 18.42 12.54L18.42 12.54L18.42 12.54Q18.42 11.41 19.45 10.91L19.45 10.91L19.45 10.91Q20.48 10.42 22.08 10.42L22.08 10.42L22.08 10.42Q22.97 10.42 23.46 10.63L23.46 10.63L23.46 10.63Q23.95 10.84 23.95 11.35L23.95 11.35L23.95 11.35Q23.95 11.70 23.70 11.97L23.70 11.97L23.70 11.97Q23.44 12.24 22.96 12.24L22.96 12.24L22.96 12.24Q22.54 12.24 22.42 12.17L22.42 12.17L22.42 12.17Q22.30 12.11 22.29 11.96L22.29 11.96L22.29 11.96Q22.29 11.82 22.36 11.66L22.36 11.66ZM30.76 12.01L29.88 15.54L29.88 15.54Q29.88 15.86 30.04 16.05L30.04 16.05L30.04 16.05Q30.21 16.24 30.52 16.24L30.52 16.24L30.52 16.24Q30.94 16.24 31.21 16.00L31.21 16.00L31.21 16.00Q31.49 15.75 31.79 15.30L31.79 15.30L31.79 15.30Q32.02 14.98 32.16 14.84L32.16 14.84L32.16 14.84Q32.30 14.70 32.48 14.70L32.48 14.70L32.48 14.70Q32.84 14.70 33.00 14.79L33.00 14.79L33.00 14.79Q33.15 14.88 33.15 15.16L33.15 15.16L33.15 15.16Q33.15 15.29 33.12 15.46L33.12 15.46L33.12 15.46Q33.10 15.64 33.05 15.72L33.05 15.72L33.05 15.72Q32.72 16.44 31.95 16.95L31.95 16.95L31.95 16.95Q31.19 17.47 30.23 17.47L30.23 17.47L30.23 17.47Q29.26 17.47 28.77 17.00L28.77 17.00L28.77 17.00Q28.28 16.53 28.28 15.67L28.28 15.67L28.28 15.67Q28.28 15.54 28.41 15.01L28.41 15.01L28.41 15.01Q28.53 14.48 28.73 13.73L28.73 13.73L29.12 12.14L28.27 12.21L28.27 12.21Q28.10 12.21 28.01 12.08L28.01 12.08L28.01 12.08Q27.93 11.96 27.93 11.77L27.93 11.77L27.93 11.77Q27.93 11.42 28.18 11.07L28.18 11.07L28.18 11.07Q28.21 11.03 28.46 10.99L28.46 10.99L28.46 10.99Q28.71 10.95 29.08 10.91L29.08 10.91L29.46 10.86L29.93 8.82L29.93 8.82Q30.07 8.46 30.36 8.25L30.36 8.25L30.36 8.25Q30.65 8.05 30.90 8.05L30.90 8.05L30.90 8.05Q31.18 8.05 31.37 8.22L31.37 8.22L31.37 8.22Q31.57 8.39 31.58 8.61L31.58 8.61L31.08 10.71L31.08 10.71Q31.63 10.64 32.09 10.59L32.09 10.59L32.09 10.59Q32.56 10.54 32.83 10.54L32.83 10.54L32.83 10.54Q33.36 10.54 33.36 11.16L33.36 11.16L33.36 11.16Q33.36 11.40 33.16 11.59L33.16 11.59L33.16 11.59Q32.96 11.77 32.72 11.82L32.72 11.82L30.76 12.01ZM36.62 17.37L36.62 17.37Q35.39 17.37 34.71 16.53L34.71 16.53L34.71 16.53Q34.02 15.69 34.02 14.39L34.02 14.39L34.02 14.39Q34.02 13.30 34.55 12.33L34.55 12.33L34.55 12.33Q35.07 11.37 35.98 10.78L35.98 10.78L35.98 10.78Q36.89 10.19 37.98 10.19L37.98 10.19L37.98 10.19Q39.06 10.19 39.75 10.90L39.75 10.90L39.75 10.90Q40.45 11.61 40.45 12.98L40.45 12.98L40.45 12.98Q40.45 13.94 39.91 14.98L39.91 14.98L39.91 14.98Q39.38 16.02 38.49 16.70L38.49 16.70L38.49 16.70Q37.60 17.37 36.62 17.37L36.62 17.37ZM36.83 16.25L36.83 16.25Q37.28 16.25 37.74 15.69L37.74 15.69L37.74 15.69Q38.19 15.13 38.49 14.28L38.49 14.28L38.49 14.28Q38.78 13.43 38.78 12.61L38.78 12.61L38.78 12.61Q38.78 11.37 37.74 11.37L37.74 11.37L37.74 11.37Q37.17 11.37 36.69 11.91L36.69 11.91L36.69 11.91Q36.22 12.46 35.94 13.27L35.94 13.27L35.94 13.27Q35.66 14.07 35.66 14.77L35.66 14.77L35.66 14.77Q35.66 15.18 35.84 15.52L35.84 15.52L35.84 15.52Q36.02 15.86 36.30 16.06L36.30 16.06L36.30 16.06Q36.57 16.25 36.83 16.25L36.83 16.25ZM43.74 17.37L43.74 17.37Q42.50 17.37 41.82 16.53L41.82 16.53L41.82 16.53Q41.13 15.69 41.13 14.39L41.13 14.39L41.13 14.39Q41.13 13.30 41.66 12.33L41.66 12.33L41.66 12.33Q42.18 11.37 43.09 10.78L43.09 10.78L43.09 10.78Q44.00 10.19 45.09 10.19L45.09 10.19L45.09 10.19Q46.17 10.19 46.87 10.90L46.87 10.90L46.87 10.90Q47.56 11.61 47.56 12.98L47.56 12.98L47.56 12.98Q47.56 13.94 47.03 14.98L47.03 14.98L47.03 14.98Q46.49 16.02 45.61 16.70L45.61 16.70L45.61 16.70Q44.72 17.37 43.74 17.37L43.74 17.37ZM43.95 16.25L43.95 16.25Q44.39 16.25 44.85 15.69L44.85 15.69L44.85 15.69Q45.30 15.13 45.60 14.28L45.60 14.28L45.60 14.28Q45.89 13.43 45.89 12.61L45.89 12.61L45.89 12.61Q45.89 11.37 44.86 11.37L44.86 11.37L44.86 11.37Q44.28 11.37 43.81 11.91L43.81 11.91L43.81 11.91Q43.33 12.46 43.05 13.27L43.05 13.27L43.05 13.27Q42.77 14.07 42.77 14.77L42.77 14.77L42.77 14.77Q42.77 15.18 42.95 15.52L42.95 15.52L42.95 15.52Q43.13 15.86 43.41 16.06L43.41 16.06L43.41 16.06Q43.68 16.25 43.95 16.25L43.95 16.25ZM52.12 7.04L51.53 9.46L51.53 9.46Q49.95 16.11 49.67 17.07L49.67 17.07L49.67 17.07Q49.64 17.15 49.39 17.28L49.39 17.28L49.39 17.28Q49.13 17.42 49.03 17.42L49.03 17.42L49.03 17.42Q48.64 17.42 48.27 17.22L48.27 17.22L48.27 17.22Q47.91 17.02 47.88 16.59L47.88 16.59L47.88 16.59Q47.89 16.56 48.02 16.30L48.02 16.30L48.02 16.30Q48.15 16.03 48.27 15.54L48.27 15.54L48.27 15.54Q48.59 14.34 49.01 12.68L49.01 12.68L49.01 12.68Q49.42 11.03 49.56 10.47L49.56 10.47L50.22 7.80L50.22 7.80Q50.20 7.69 50.20 6.64L50.20 6.64L50.20 6.64Q50.25 6.45 50.52 6.34L50.52 6.34L50.52 6.34Q50.79 6.23 51.02 6.23L51.02 6.23L51.02 6.23Q51.37 6.23 51.74 6.47L51.74 6.47L51.74 6.47Q52.11 6.71 52.12 7.04L52.12 7.04ZM59.12 10.81L59.12 10.81Q59.18 10.89 59.27 11.12L59.27 11.12L59.27 11.12Q59.36 11.35 59.36 11.48L59.36 11.48L59.36 11.48Q59.36 11.55 59.35 11.56L59.35 11.56L59.35 11.56Q59.28 11.65 59.02 11.70L59.02 11.70L59.02 11.70Q58.77 11.76 58.69 11.77L58.69 11.77L58.69 11.77Q58.25 12.05 57.31 12.66L57.31 12.66L57.31 12.66Q56.36 13.27 55.93 13.55L55.93 13.55L55.93 13.55Q55.96 13.89 56.43 14.58L56.43 14.58L56.43 14.58Q56.91 15.27 57.46 15.89L57.46 15.89L57.46 15.89Q58.00 16.51 58.11 16.51L58.11 16.51L58.11 16.51Q58.24 16.51 58.43 16.72L58.43 16.72L58.43 16.72Q58.62 16.93 58.62 17.09L58.62 17.09L58.62 17.09Q58.62 17.25 58.42 17.29L58.42 17.29L58.42 17.29Q58.30 17.32 57.95 17.39L57.95 17.39L57.95 17.39Q57.61 17.46 57.36 17.46L57.36 17.46L57.36 17.46Q57.13 17.46 57.01 17.40L57.01 17.40L57.01 17.40Q56.69 17.29 56.13 16.65L56.13 16.65L56.13 16.65Q55.58 16.02 55.08 15.23L55.08 15.23L55.08 15.23Q54.57 14.43 54.42 13.86L54.42 13.86L54.42 13.86Q53.97 15.67 53.79 16.33L53.79 16.33L53.79 16.33Q53.61 17.00 53.49 17.20L53.49 17.20L53.49 17.20Q53.38 17.40 53.23 17.40L53.23 17.40L52.84 17.42L52.84 17.42Q51.91 17.42 51.87 16.67L51.87 16.67L51.87 16.67Q52.15 15.99 52.26 15.54L52.26 15.54L52.26 15.54Q53.65 10.40 54.24 7.80L54.24 7.80L54.24 7.80Q54.22 7.59 54.21 7.22L54.21 7.22L54.21 7.22Q54.19 6.85 54.19 6.64L54.19 6.64L54.19 6.64Q54.24 6.45 54.51 6.34L54.51 6.34L54.51 6.34Q54.78 6.23 55.01 6.23L55.01 6.23L55.01 6.23Q55.36 6.23 55.75 6.47L55.75 6.47L55.75 6.47Q56.14 6.71 56.15 7.04L56.15 7.04L54.91 11.93L54.67 12.89L54.67 12.89Q54.96 12.53 55.67 12.00L55.67 12.00L55.67 12.00Q56.38 11.47 57.13 11.05L57.13 11.05L57.13 11.05Q57.88 10.63 58.32 10.54L58.32 10.54L58.32 10.54Q58.44 10.54 58.74 10.61L58.74 10.61L58.74 10.61Q59.04 10.68 59.12 10.81L59.12 10.81ZM61.19 8.76L61.19 8.76Q61.19 8.33 61.47 7.99L61.47 7.99L61.47 7.99Q61.74 7.66 62.23 7.66L62.23 7.66L62.23 7.66Q62.75 7.66 63.13 7.98L63.13 7.98L63.13 7.98Q63.52 8.30 63.52 8.71L63.52 8.71L63.52 8.71Q63.52 9.11 63.13 9.41L63.13 9.41L63.13 9.41Q62.73 9.70 62.22 9.70L62.22 9.70L62.22 9.70Q61.71 9.70 61.45 9.44L61.45 9.44L61.45 9.44Q61.19 9.18 61.19 8.76L61.19 8.76ZM62.66 11.24L62.66 11.24Q61.92 14.27 61.53 15.79L61.53 15.79L61.53 15.79Q61.47 16.02 61.47 16.28L61.47 16.28L61.49 16.67L61.49 16.67Q61.49 16.91 61.34 17.01L61.34 17.01L61.34 17.01Q61.19 17.11 60.72 17.12L60.72 17.12L60.72 17.12Q60.26 17.12 60.02 17.02L60.02 17.02L60.02 17.02Q59.78 16.93 59.78 16.60L59.78 16.60L59.78 16.60Q59.78 16.45 60.14 14.97L60.14 14.97L60.14 14.97Q60.49 13.48 61.11 11.10L61.11 11.10L60.79 10.68L60.79 10.68Q60.75 10.64 60.75 10.58L60.75 10.58L60.75 10.58Q60.75 10.44 61.05 10.35L61.05 10.35L61.05 10.35Q61.36 10.26 61.91 10.26L61.91 10.26L61.91 10.26Q62.38 10.26 62.52 10.54L62.52 10.54L62.52 10.54Q62.65 10.81 62.66 11.24L62.66 11.24ZM66.39 12.01L65.51 15.54L65.51 15.54Q65.51 15.86 65.67 16.05L65.67 16.05L65.67 16.05Q65.84 16.24 66.15 16.24L66.15 16.24L66.15 16.24Q66.57 16.24 66.84 16.00L66.84 16.00L66.84 16.00Q67.12 15.75 67.42 15.30L67.42 15.30L67.42 15.30Q67.65 14.98 67.79 14.84L67.79 14.84L67.79 14.84Q67.93 14.70 68.11 14.70L68.11 14.70L68.11 14.70Q68.47 14.70 68.63 14.79L68.63 14.79L68.63 14.79Q68.78 14.88 68.78 15.16L68.78 15.16L68.78 15.16Q68.78 15.29 68.75 15.46L68.75 15.46L68.75 15.46Q68.73 15.64 68.68 15.72L68.68 15.72L68.68 15.72Q68.35 16.44 67.58 16.95L67.58 16.95L67.58 16.95Q66.82 17.47 65.86 17.47L65.86 17.47L65.86 17.47Q64.89 17.47 64.40 17.00L64.40 17.00L64.40 17.00Q63.91 16.53 63.91 15.67L63.91 15.67L63.91 15.67Q63.91 15.54 64.04 15.01L64.04 15.01L64.04 15.01Q64.16 14.48 64.36 13.73L64.36 13.73L64.75 12.14L63.90 12.21L63.90 12.21Q63.73 12.21 63.64 12.08L63.64 12.08L63.64 12.08Q63.56 11.96 63.56 11.77L63.56 11.77L63.56 11.77Q63.56 11.42 63.81 11.07L63.81 11.07L63.81 11.07Q63.84 11.03 64.09 10.99L64.09 10.99L64.09 10.99Q64.34 10.95 64.71 10.91L64.71 10.91L65.09 10.86L65.56 8.82L65.56 8.82Q65.70 8.46 65.99 8.25L65.99 8.25L65.99 8.25Q66.28 8.05 66.53 8.05L66.53 8.05L66.53 8.05Q66.81 8.05 67.00 8.22L67.00 8.22L67.00 8.22Q67.20 8.39 67.21 8.61L67.21 8.61L66.71 10.71L66.71 10.71Q67.26 10.64 67.72 10.59L67.72 10.59L67.72 10.59Q68.19 10.54 68.46 10.54L68.46 10.54L68.46 10.54Q68.99 10.54 68.99 11.16L68.99 11.16L68.99 11.16Q68.99 11.40 68.79 11.59L68.79 11.59L68.79 11.59Q68.59 11.77 68.35 11.82L68.35 11.82L66.39 12.01Z"></path></g><!----><!----></svg>