<svg data-v-423bf9ae="" xmlns="http://www.w3.org/2000/svg" viewBox="0 0 366.56583398905514 186" class="iconAboveSlogan"><!----><!----><!----><g data-v-423bf9ae="" id="9606d706-7ce0-455f-995c-58d0476c258e" fill="#0D2633" transform="matrix(5.338078400515052,0,0,5.338078400515052,-1.7081886677652278,69.74377289348695)"><path d="M5.87 15.30L5.87 15.30Q6.41 15.54 6.41 15.95L6.41 15.95L6.41 15.95Q6.41 16.20 6.16 16.44L6.16 16.44L6.16 16.44Q5.91 16.67 5.59 16.77L5.59 16.77L5.59 16.77Q4.82 16.86 4.49 16.87L4.49 16.87L4.49 16.87Q2.62 17.02 1.85 17.16L1.85 17.16L1.85 17.16Q1.72 17.25 1.32 17.25L1.32 17.25L1.32 17.25Q0.92 17.25 0.62 16.88L0.62 16.88L0.62 16.88Q0.32 16.52 0.32 16.13L0.32 16.13L0.32 16.13Q0.32 15.97 0.36 15.83L0.36 15.83L2.16 8.75L2.16 8.75Q2.31 8.13 2.48 7.93L2.48 7.93L2.48 7.93Q2.66 7.73 3.12 7.73L3.12 7.73L3.12 7.73Q3.50 7.73 3.77 7.81L3.77 7.81L3.77 7.81Q4.05 7.90 4.06 8.06L4.06 8.06L4.06 8.06Q4.06 8.46 2.25 15.68L2.25 15.68L2.25 15.68Q3.49 15.47 5.39 15.34L5.39 15.34L5.87 15.30ZM8.37 16.55L8.37 16.55Q8.36 16.63 8.31 16.88L8.31 16.88L8.31 16.88Q8.26 17.12 8.07 17.22L8.07 17.22L8.07 17.22Q7.88 17.32 7.48 17.32L7.48 17.32L7.48 17.32Q7.01 17.32 6.80 17.22L6.80 17.22L6.80 17.22Q6.59 17.12 6.59 16.80L6.59 16.80L7.27 14.13L7.27 14.13Q7.83 11.82 8.01 11.19L8.01 11.19L7.66 10.77L7.66 10.77Q7.62 10.72 7.62 10.67L7.62 10.67L7.62 10.67Q7.62 10.53 7.92 10.44L7.92 10.44L7.92 10.44Q8.23 10.35 8.78 10.35L8.78 10.35L8.78 10.35Q9.27 10.35 9.44 10.62L9.44 10.62L9.44 10.62Q9.60 10.89 9.65 11.33L9.65 11.33L9.55 11.69L9.55 11.69Q10.00 11.14 10.59 10.79L10.59 10.79L10.59 10.79Q11.19 10.43 11.65 10.43L11.65 10.43L11.65 10.43Q12.25 10.43 12.59 10.64L12.59 10.64L12.59 10.64Q12.92 10.85 12.92 11.19L12.92 11.19L12.92 11.19Q12.92 11.48 12.72 11.80L12.72 11.80L12.72 11.80Q12.52 12.11 12.21 12.33L12.21 12.33L12.21 12.33Q11.90 12.54 11.61 12.57L11.61 12.57L11.61 12.57Q11.33 12.57 11.23 12.50L11.23 12.50L11.23 12.50Q11.13 12.43 11.13 12.29L11.13 12.29L11.21 11.83L11.21 11.83Q10.09 12.14 9.18 13.31L9.18 13.31L8.37 16.55ZM16.63 8.25L16.63 8.25Q16.59 8.50 16.42 8.97L16.42 8.97L16.42 8.97Q16.25 9.44 16.21 9.55L16.21 9.55L16.21 9.55Q15.83 10.51 15.72 10.99L15.72 10.99L15.72 10.99Q15.64 11.33 15.41 11.49L15.41 11.49L15.41 11.49Q15.18 11.65 14.77 11.65L14.77 11.65L14.77 11.65Q14.41 11.65 14.29 11.53L14.29 11.53L14.29 11.53Q14.18 11.41 14.18 11.12L14.18 11.12L14.18 10.92L14.64 8.47L14.64 8.47Q14.74 7.95 14.99 7.71L14.99 7.71L14.99 7.71Q15.25 7.48 15.75 7.48L15.75 7.48L15.75 7.48Q16.20 7.48 16.41 7.69L16.41 7.69L16.41 7.69Q16.63 7.90 16.63 8.25L16.63 8.25ZM22.36 11.66L22.36 11.66Q22.19 11.58 21.94 11.58L21.94 11.58L21.94 11.58Q21.31 11.58 20.68 11.83L20.68 11.83L20.68 11.83Q20.05 12.08 20.05 12.47L20.05 12.47L20.05 12.47Q20.05 12.75 20.30 12.92L20.30 12.92L20.30 12.92Q20.55 13.09 21.10 13.30L21.10 13.30L21.10 13.30Q21.69 13.54 22.05 13.75L22.05 13.75L22.05 13.75Q22.41 13.96 22.69 14.36L22.69 14.36L22.69 14.36Q22.96 14.76 22.96 15.37L22.96 15.37L22.96 15.37Q22.96 16.38 22.13 16.92L22.13 16.92L22.13 16.92Q21.29 17.46 19.89 17.46L19.89 17.46L19.89 17.46Q19.21 17.46 18.62 17.25L18.62 17.25L18.62 17.25Q18.03 17.04 17.69 16.71L17.69 16.71L17.69 16.71Q17.35 16.38 17.32 16.06L17.32 16.06L17.32 16.06Q17.32 15.72 17.61 15.51L17.61 15.51L17.61 15.51Q17.91 15.29 18.44 15.22L18.44 15.22L18.44 15.22Q18.45 15.50 18.73 15.74L18.73 15.74L18.73 15.74Q19.01 15.99 19.40 16.14L19.40 16.14L19.40 16.14Q19.78 16.28 20.06 16.28L20.06 16.28L20.06 16.28Q20.54 16.28 20.93 16.02L20.93 16.02L20.93 16.02Q21.32 15.76 21.32 15.41L21.32 15.41L21.32 15.41Q21.32 14.77 20.08 14.39L20.08 14.39L20.08 14.39Q19.28 14.15 18.85 13.64L18.85 13.64L18.85 13.64Q18.42 13.12 18.42 12.54L18.42 12.54L18.42 12.54Q18.42 11.41 19.45 10.91L19.45 10.91L19.45 10.91Q20.48 10.42 22.08 10.42L22.08 10.42L22.08 10.42Q22.97 10.42 23.46 10.63L23.46 10.63L23.46 10.63Q23.95 10.84 23.95 11.35L23.95 11.35L23.95 11.35Q23.95 11.70 23.70 11.97L23.70 11.97L23.70 11.97Q23.44 12.24 22.96 12.24L22.96 12.24L22.96 12.24Q22.54 12.24 22.42 12.17L22.42 12.17L22.42 12.17Q22.30 12.11 22.29 11.96L22.29 11.96L22.29 11.96Q22.29 11.82 22.36 11.66L22.36 11.66ZM30.76 12.01L29.88 15.54L29.88 15.54Q29.88 15.86 30.04 16.05L30.04 16.05L30.04 16.05Q30.21 16.24 30.52 16.24L30.52 16.24L30.52 16.24Q30.94 16.24 31.21 16.00L31.21 16.00L31.21 16.00Q31.49 15.75 31.79 15.30L31.79 15.30L31.79 15.30Q32.02 14.98 32.16 14.84L32.16 14.84L32.16 14.84Q32.30 14.70 32.48 14.70L32.48 14.70L32.48 14.70Q32.84 14.70 33.00 14.79L33.00 14.79L33.00 14.79Q33.15 14.88 33.15 15.16L33.15 15.16L33.15 15.16Q33.15 15.29 33.12 15.46L33.12 15.46L33.12 15.46Q33.10 15.64 33.05 15.72L33.05 15.72L33.05 15.72Q32.72 16.44 31.95 16.95L31.95 16.95L31.95 16.95Q31.19 17.47 30.23 17.47L30.23 17.47L30.23 17.47Q29.26 17.47 28.77 17.00L28.77 17.00L28.77 17.00Q28.28 16.53 28.28 15.67L28.28 15.67L28.28 15.67Q28.28 15.54 28.41 15.01L28.41 15.01L28.41 15.01Q28.53 14.48 28.73 13.73L28.73 13.73L29.12 12.14L28.27 12.21L28.27 12.21Q28.10 12.21 28.01 12.08L28.01 12.08L28.01 12.08Q27.93 11.96 27.93 11.77L27.93 11.77L27.93 11.77Q27.93 11.42 28.18 11.07L28.18 11.07L28.18 11.07Q28.21 11.03 28.46 10.99L28.46 10.99L28.46 10.99Q28.71 10.95 29.08 10.91L29.08 10.91L29.46 10.86L29.93 8.82L29.93 8.82Q30.07 8.46 30.36 8.25L30.36 8.25L30.36 8.25Q30.65 8.05 30.90 8.05L30.90 8.05L30.90 8.05Q31.18 8.05 31.37 8.22L31.37 8.22L31.37 8.22Q31.57 8.39 31.58 8.61L31.58 8.61L31.08 10.71L31.08 10.71Q31.63 10.64 32.09 10.59L32.09 10.59L32.09 10.59Q32.56 10.54 32.83 10.54L32.83 10.54L32.83 10.54Q33.36 10.54 33.36 11.16L33.36 11.16L33.36 11.16Q33.36 11.40 33.16 11.59L33.16 11.59L33.16 11.59Q32.96 11.77 32.72 11.82L32.72 11.82L30.76 12.01ZM36.62 17.37L36.62 17.37Q35.39 17.37 34.71 16.53L34.71 16.53L34.71 16.53Q34.02 15.69 34.02 14.39L34.02 14.39L34.02 14.39Q34.02 13.30 34.55 12.33L34.55 12.33L34.55 12.33Q35.07 11.37 35.98 10.78L35.98 10.78L35.98 10.78Q36.89 10.19 37.98 10.19L37.98 10.19L37.98 10.19Q39.06 10.19 39.75 10.90L39.75 10.90L39.75 10.90Q40.45 11.61 40.45 12.98L40.45 12.98L40.45 12.98Q40.45 13.94 39.91 14.98L39.91 14.98L39.91 14.98Q39.38 16.02 38.49 16.70L38.49 16.70L38.49 16.70Q37.60 17.37 36.62 17.37L36.62 17.37ZM36.83 16.25L36.83 16.25Q37.28 16.25 37.74 15.69L37.74 15.69L37.74 15.69Q38.19 15.13 38.49 14.28L38.49 14.28L38.49 14.28Q38.78 13.43 38.78 12.61L38.78 12.61L38.78 12.61Q38.78 11.37 37.74 11.37L37.74 11.37L37.74 11.37Q37.17 11.37 36.69 11.91L36.69 11.91L36.69 11.91Q36.22 12.46 35.94 13.27L35.94 13.27L35.94 13.27Q35.66 14.07 35.66 14.77L35.66 14.77L35.66 14.77Q35.66 15.18 35.84 15.52L35.84 15.52L35.84 15.52Q36.02 15.86 36.30 16.06L36.30 16.06L36.30 16.06Q36.57 16.25 36.83 16.25L36.83 16.25ZM43.74 17.37L43.74 17.37Q42.50 17.37 41.82 16.53L41.82 16.53L41.82 16.53Q41.13 15.69 41.13 14.39L41.13 14.39L41.13 14.39Q41.13 13.30 41.66 12.33L41.66 12.33L41.66 12.33Q42.18 11.37 43.09 10.78L43.09 10.78L43.09 10.78Q44.00 10.19 45.09 10.19L45.09 10.19L45.09 10.19Q46.17 10.19 46.87 10.90L46.87 10.90L46.87 10.90Q47.56 11.61 47.56 12.98L47.56 12.98L47.56 12.98Q47.56 13.94 47.03 14.98L47.03 14.98L47.03 14.98Q46.49 16.02 45.61 16.70L45.61 16.70L45.61 16.70Q44.72 17.37 43.74 17.37L43.74 17.37ZM43.95 16.25L43.95 16.25Q44.39 16.25 44.85 15.69L44.85 15.69L44.85 15.69Q45.30 15.13 45.60 14.28L45.60 14.28L45.60 14.28Q45.89 13.43 45.89 12.61L45.89 12.61L45.89 12.61Q45.89 11.37 44.86 11.37L44.86 11.37L44.86 11.37Q44.28 11.37 43.81 11.91L43.81 11.91L43.81 11.91Q43.33 12.46 43.05 13.27L43.05 13.27L43.05 13.27Q42.77 14.07 42.77 14.77L42.77 14.77L42.77 14.77Q42.77 15.18 42.95 15.52L42.95 15.52L42.95 15.52Q43.13 15.86 43.41 16.06L43.41 16.06L43.41 16.06Q43.68 16.25 43.95 16.25L43.95 16.25ZM52.12 7.04L51.53 9.46L51.53 9.46Q49.95 16.11 49.67 17.07L49.67 17.07L49.67 17.07Q49.64 17.15 49.39 17.28L49.39 17.28L49.39 17.28Q49.13 17.42 49.03 17.42L49.03 17.42L49.03 17.42Q48.64 17.42 48.27 17.22L48.27 17.22L48.27 17.22Q47.91 17.02 47.88 16.59L47.88 16.59L47.88 16.59Q47.89 16.56 48.02 16.30L48.02 16.30L48.02 16.30Q48.15 16.03 48.27 15.54L48.27 15.54L48.27 15.54Q48.59 14.34 49.01 12.68L49.01 12.68L49.01 12.68Q49.42 11.03 49.56 10.47L49.56 10.47L50.22 7.80L50.22 7.80Q50.20 7.69 50.20 6.64L50.20 6.64L50.20 6.64Q50.25 6.45 50.52 6.34L50.52 6.34L50.52 6.34Q50.79 6.23 51.02 6.23L51.02 6.23L51.02 6.23Q51.37 6.23 51.74 6.47L51.74 6.47L51.74 6.47Q52.11 6.71 52.12 7.04L52.12 7.04ZM59.12 10.81L59.12 10.81Q59.18 10.89 59.27 11.12L59.27 11.12L59.27 11.12Q59.36 11.35 59.36 11.48L59.36 11.48L59.36 11.48Q59.36 11.55 59.35 11.56L59.35 11.56L59.35 11.56Q59.28 11.65 59.02 11.70L59.02 11.70L59.02 11.70Q58.77 11.76 58.69 11.77L58.69 11.77L58.69 11.77Q58.25 12.05 57.31 12.66L57.31 12.66L57.31 12.66Q56.36 13.27 55.93 13.55L55.93 13.55L55.93 13.55Q55.96 13.89 56.43 14.58L56.43 14.58L56.43 14.58Q56.91 15.27 57.46 15.89L57.46 15.89L57.46 15.89Q58.00 16.51 58.11 16.51L58.11 16.51L58.11 16.51Q58.24 16.51 58.43 16.72L58.43 16.72L58.43 16.72Q58.62 16.93 58.62 17.09L58.62 17.09L58.62 17.09Q58.62 17.25 58.42 17.29L58.42 17.29L58.42 17.29Q58.30 17.32 57.95 17.39L57.95 17.39L57.95 17.39Q57.61 17.46 57.36 17.46L57.36 17.46L57.36 17.46Q57.13 17.46 57.01 17.40L57.01 17.40L57.01 17.40Q56.69 17.29 56.13 16.65L56.13 16.65L56.13 16.65Q55.58 16.02 55.08 15.23L55.08 15.23L55.08 15.23Q54.57 14.43 54.42 13.86L54.42 13.86L54.42 13.86Q53.97 15.67 53.79 16.33L53.79 16.33L53.79 16.33Q53.61 17.00 53.49 17.20L53.49 17.20L53.49 17.20Q53.38 17.40 53.23 17.40L53.23 17.40L52.84 17.42L52.84 17.42Q51.91 17.42 51.87 16.67L51.87 16.67L51.87 16.67Q52.15 15.99 52.26 15.54L52.26 15.54L52.26 15.54Q53.65 10.40 54.24 7.80L54.24 7.80L54.24 7.80Q54.22 7.59 54.21 7.22L54.21 7.22L54.21 7.22Q54.19 6.85 54.19 6.64L54.19 6.64L54.19 6.64Q54.24 6.45 54.51 6.34L54.51 6.34L54.51 6.34Q54.78 6.23 55.01 6.23L55.01 6.23L55.01 6.23Q55.36 6.23 55.75 6.47L55.75 6.47L55.75 6.47Q56.14 6.71 56.15 7.04L56.15 7.04L54.91 11.93L54.67 12.89L54.67 12.89Q54.96 12.53 55.67 12.00L55.67 12.00L55.67 12.00Q56.38 11.47 57.13 11.05L57.13 11.05L57.13 11.05Q57.88 10.63 58.32 10.54L58.32 10.54L58.32 10.54Q58.44 10.54 58.74 10.61L58.74 10.61L58.74 10.61Q59.04 10.68 59.12 10.81L59.12 10.81ZM61.19 8.76L61.19 8.76Q61.19 8.33 61.47 7.99L61.47 7.99L61.47 7.99Q61.74 7.66 62.23 7.66L62.23 7.66L62.23 7.66Q62.75 7.66 63.13 7.98L63.13 7.98L63.13 7.98Q63.52 8.30 63.52 8.71L63.52 8.71L63.52 8.71Q63.52 9.11 63.13 9.41L63.13 9.41L63.13 9.41Q62.73 9.70 62.22 9.70L62.22 9.70L62.22 9.70Q61.71 9.70 61.45 9.44L61.45 9.44L61.45 9.44Q61.19 9.18 61.19 8.76L61.19 8.76ZM62.66 11.24L62.66 11.24Q61.92 14.27 61.53 15.79L61.53 15.79L61.53 15.79Q61.47 16.02 61.47 16.28L61.47 16.28L61.49 16.67L61.49 16.67Q61.49 16.91 61.34 17.01L61.34 17.01L61.34 17.01Q61.19 17.11 60.72 17.12L60.72 17.12L60.72 17.12Q60.26 17.12 60.02 17.02L60.02 17.02L60.02 17.02Q59.78 16.93 59.78 16.60L59.78 16.60L59.78 16.60Q59.78 16.45 60.14 14.97L60.14 14.97L60.14 14.97Q60.49 13.48 61.11 11.10L61.11 11.10L60.79 10.68L60.79 10.68Q60.75 10.64 60.75 10.58L60.75 10.58L60.75 10.58Q60.75 10.44 61.05 10.35L61.05 10.35L61.05 10.35Q61.36 10.26 61.91 10.26L61.91 10.26L61.91 10.26Q62.38 10.26 62.52 10.54L62.52 10.54L62.52 10.54Q62.65 10.81 62.66 11.24L62.66 11.24ZM66.39 12.01L65.51 15.54L65.51 15.54Q65.51 15.86 65.67 16.05L65.67 16.05L65.67 16.05Q65.84 16.24 66.15 16.24L66.15 16.24L66.15 16.24Q66.57 16.24 66.84 16.00L66.84 16.00L66.84 16.00Q67.12 15.75 67.42 15.30L67.42 15.30L67.42 15.30Q67.65 14.98 67.79 14.84L67.79 14.84L67.79 14.84Q67.93 14.70 68.11 14.70L68.11 14.70L68.11 14.70Q68.47 14.70 68.63 14.79L68.63 14.79L68.63 14.79Q68.78 14.88 68.78 15.16L68.78 15.16L68.78 15.16Q68.78 15.29 68.75 15.46L68.75 15.46L68.75 15.46Q68.73 15.64 68.68 15.72L68.68 15.72L68.68 15.72Q68.35 16.44 67.58 16.95L67.58 16.95L67.58 16.95Q66.82 17.47 65.86 17.47L65.86 17.47L65.86 17.47Q64.89 17.47 64.40 17.00L64.40 17.00L64.40 17.00Q63.91 16.53 63.91 15.67L63.91 15.67L63.91 15.67Q63.91 15.54 64.04 15.01L64.04 15.01L64.04 15.01Q64.16 14.48 64.36 13.73L64.36 13.73L64.75 12.14L63.90 12.21L63.90 12.21Q63.73 12.21 63.64 12.08L63.64 12.08L63.64 12.08Q63.56 11.96 63.56 11.77L63.56 11.77L63.56 11.77Q63.56 11.42 63.81 11.07L63.81 11.07L63.81 11.07Q63.84 11.03 64.09 10.99L64.09 10.99L64.09 10.99Q64.34 10.95 64.71 10.91L64.71 10.91L65.09 10.86L65.56 8.82L65.56 8.82Q65.70 8.46 65.99 8.25L65.99 8.25L65.99 8.25Q66.28 8.05 66.53 8.05L66.53 8.05L66.53 8.05Q66.81 8.05 67.00 8.22L67.00 8.22L67.00 8.22Q67.20 8.39 67.21 8.61L67.21 8.61L66.71 10.71L66.71 10.71Q67.26 10.64 67.72 10.59L67.72 10.59L67.72 10.59Q68.19 10.54 68.46 10.54L68.46 10.54L68.46 10.54Q68.99 10.54 68.99 11.16L68.99 11.16L68.99 11.16Q68.99 11.40 68.79 11.59L68.79 11.59L68.79 11.59Q68.59 11.77 68.35 11.82L68.35 11.82L66.39 12.01Z"></path></g><defs data-v-423bf9ae=""><linearGradient data-v-423bf9ae="" gradientTransform="rotate(25)" id="ffd808f5-1b8b-4670-8997-41d4d4d2dd81" x1="0%" y1="0%" x2="100%" y2="0%"><stop data-v-423bf9ae="" offset="0%" style="stop-color: rgb(0, 102, 120); stop-opacity: 1;"></stop><stop data-v-423bf9ae="" offset="100%" style="stop-color: rgb(79, 168, 255); stop-opacity: 1;"></stop></linearGradient></defs><g data-v-423bf9ae="" id="1f124d84-296f-4f81-b722-ca86ef0d65aa" transform="matrix(2.8125,0,0,2.8125,138.8300018310547,0)" stroke="none" fill="url(#ffd808f5-1b8b-4670-8997-41d4d4d2dd81)"><path d="M2.83 18.247l26.34-9.124L2.83 0zM29.17 32V13.753L2.83 22.877z"></path></g><!----><g data-v-423bf9ae="" id="a25bb5cf-2634-4559-a63a-c06478eeded8" fill="#0D2633" transform="matrix(0.8985044546725488,0,0,0.8985044546725488,46.60885913462363,200.53722934580594)"><path d="M1.89 3.92L0.70 3.92L0.70 4.19C0.70 4.34 0.80 4.42 0.98 4.44L1.12 4.44C1.19 4.44 1.29 4.45 1.43 4.45C1.57 4.45 1.72 4.47 1.89 4.47L1.89 13.26C1.72 13.26 1.57 13.27 1.43 13.27C1.29 13.27 1.19 13.29 1.12 13.29L0.98 13.29C0.80 13.30 0.71 13.38 0.71 13.54L0.71 13.82L1.89 13.82L7.83 13.82L7.83 13.22L7.83 11.76L7.48 11.76C7.28 11.76 7.20 11.89 7.18 12.11C7.18 12.14 7.17 12.19 7.17 12.29C7.17 12.39 7.17 12.53 7.15 12.74C7.14 12.95 7.13 13.09 7.13 13.22L2.60 13.22L2.60 9.09L6.55 9.09L6.55 8.51L2.60 8.51L2.60 4.51L7.13 4.51C7.15 5.12 7.18 5.50 7.18 5.63C7.20 5.85 7.28 5.96 7.48 5.96L7.83 5.96L7.83 4.51L7.83 3.92ZM25.70 13.22L25.24 13.17L21.46 3.91L20.75 3.91L16.95 13.17L16.51 13.22C16.32 13.23 16.24 13.33 16.24 13.50L16.24 13.82L16.69 13.82L16.98 13.82L17.23 13.82L17.33 13.82L18.65 13.82L18.65 13.50C18.65 13.31 18.54 13.23 18.33 13.22C18.31 13.22 18.28 13.20 18.24 13.20C18.20 13.20 18.14 13.19 18.05 13.19C17.95 13.19 17.82 13.19 17.68 13.17L18.66 10.75L18.73 10.57L23.46 10.57L23.53 10.75L24.51 13.17C24.37 13.19 24.26 13.19 24.16 13.19C24.07 13.19 24.00 13.20 23.95 13.20C23.91 13.20 23.88 13.22 23.87 13.22C23.66 13.23 23.55 13.31 23.55 13.50L23.55 13.82L24.86 13.82L24.96 13.82L25.23 13.82L25.51 13.82L25.97 13.82L25.97 13.50C25.97 13.33 25.89 13.23 25.70 13.22ZM20.90 5.22C20.93 5.14 20.97 5.04 21 4.94C21.03 4.84 21.07 4.75 21.10 4.63C21.13 4.75 21.17 4.84 21.20 4.94C21.22 5.04 21.27 5.12 21.29 5.21L23.25 10.04L18.96 10.04ZM39.93 9.91C39.79 9.65 39.59 9.39 39.35 9.21C39.12 9.03 38.86 8.88 38.57 8.75C38.28 8.62 37.95 8.51 37.65 8.41C37.34 8.32 37.03 8.20 36.74 8.11C36.44 7.99 36.18 7.87 35.94 7.71C35.70 7.56 35.52 7.38 35.38 7.15C35.24 6.93 35.15 6.65 35.15 6.31C35.15 6.06 35.21 5.82 35.31 5.59C35.41 5.35 35.55 5.15 35.73 4.97C35.91 4.79 36.13 4.65 36.41 4.55C36.69 4.45 37.00 4.40 37.37 4.40C38.04 4.40 38.65 4.51 39.21 4.75C39.26 5.54 39.28 5.99 39.28 6.06C39.30 6.29 39.38 6.41 39.58 6.41L39.91 6.41L39.91 4.38C39.03 4.00 38.19 3.81 37.37 3.81C36.90 3.81 36.50 3.88 36.13 4.02C35.77 4.16 35.48 4.34 35.24 4.58C35 4.82 34.80 5.08 34.68 5.39C34.55 5.70 34.50 6.02 34.50 6.36C34.50 6.78 34.57 7.14 34.71 7.42C34.85 7.70 35.04 7.92 35.28 8.12C35.52 8.32 35.77 8.46 36.06 8.58C36.36 8.71 36.68 8.82 36.99 8.92C37.30 9.02 37.59 9.11 37.90 9.21C38.19 9.31 38.46 9.45 38.70 9.60C38.93 9.76 39.12 9.94 39.26 10.16C39.40 10.39 39.47 10.68 39.47 11.03C39.47 11.35 39.41 11.66 39.30 11.94C39.19 12.22 39.03 12.46 38.82 12.67C38.61 12.88 38.35 13.05 38.04 13.16C37.73 13.29 37.38 13.33 36.99 13.33C36.20 13.33 35.55 13.20 35.01 12.95C35 12.75 35 12.54 34.99 12.32C34.97 12.10 34.97 11.91 34.96 11.76C34.94 11.61 34.94 11.52 34.94 11.51C34.93 11.28 34.83 11.17 34.64 11.17L34.30 11.17L34.30 13.02L34.30 13.20L34.30 13.38C35.15 13.75 36.04 13.93 36.96 13.93C37.46 13.93 37.91 13.85 38.30 13.69C38.70 13.54 39.03 13.31 39.30 13.05C39.56 12.78 39.79 12.46 39.93 12.10C40.07 11.73 40.14 11.34 40.14 10.92C40.14 10.51 40.07 10.18 39.93 9.91ZM56.53 3.92L56.46 3.92L55.90 3.92L55.79 3.92L54.39 3.92L54.39 4.19C54.39 4.34 54.49 4.42 54.67 4.44L54.78 4.44C54.84 4.44 54.91 4.45 55.02 4.45C55.13 4.45 55.26 4.47 55.40 4.47L52.81 8.64C52.74 8.75 52.68 8.85 52.64 8.95C52.60 9.04 52.56 9.16 52.51 9.25C52.47 9.16 52.43 9.04 52.39 8.95C52.35 8.85 52.29 8.75 52.22 8.64L49.62 4.47C49.76 4.47 49.88 4.45 49.99 4.45C50.11 4.45 50.19 4.44 50.25 4.44L50.34 4.44C50.53 4.42 50.62 4.34 50.62 4.19L50.62 3.92L49.22 3.92L49.11 3.92L48.55 3.92L48.48 3.92L48.03 3.92L48.03 4.19C48.03 4.34 48.13 4.42 48.31 4.44C48.55 4.45 48.73 4.47 48.83 4.47L52.15 9.73L52.15 13.26C51.98 13.26 51.83 13.27 51.69 13.27C51.55 13.27 51.45 13.29 51.38 13.29L51.25 13.29C51.07 13.30 50.97 13.38 50.97 13.54L50.97 13.82L52.15 13.82L52.86 13.82L54.04 13.82L54.04 13.54C54.04 13.38 53.96 13.30 53.77 13.29L53.63 13.29C53.56 13.29 53.47 13.27 53.33 13.27C53.19 13.27 53.03 13.26 52.86 13.26L52.86 9.73L56.18 4.47C56.29 4.47 56.46 4.45 56.70 4.44C56.88 4.42 56.98 4.34 56.98 4.19L56.98 3.92ZM64.37 13.23C64.37 13.41 64.41 13.57 64.53 13.68C64.64 13.79 64.79 13.85 64.96 13.85L65.07 13.85C65.10 13.85 65.13 13.83 65.16 13.82C65.14 13.99 65.10 14.14 65.04 14.29C64.99 14.45 64.92 14.57 64.85 14.70C64.78 14.83 64.71 14.94 64.64 15.02C64.57 15.11 64.50 15.19 64.46 15.23C64.44 15.25 64.43 15.27 64.41 15.30C64.40 15.33 64.39 15.33 64.39 15.36C64.39 15.40 64.40 15.44 64.44 15.48L64.55 15.58C64.71 15.43 64.86 15.29 64.99 15.11C65.11 14.92 65.23 14.74 65.32 14.55C65.42 14.35 65.48 14.15 65.53 13.96C65.59 13.76 65.60 13.58 65.60 13.38C65.60 13.16 65.55 12.98 65.44 12.84C65.32 12.70 65.17 12.63 64.97 12.63C64.79 12.63 64.65 12.70 64.54 12.81C64.43 12.92 64.37 13.06 64.37 13.23ZM80.49 4.68C79.90 4.17 79.02 3.92 77.85 3.92L75.45 3.92L74.26 3.92L74.26 4.19C74.26 4.34 74.35 4.42 74.54 4.44L74.68 4.44C74.75 4.44 74.84 4.45 74.98 4.45C75.12 4.45 75.28 4.47 75.45 4.47L75.45 13.26C75.28 13.26 75.12 13.27 74.98 13.27C74.84 13.27 74.75 13.29 74.68 13.29L74.54 13.29C74.35 13.30 74.26 13.38 74.26 13.54L74.26 13.82L75.45 13.82L76.16 13.82L77.34 13.82L77.34 13.54C77.34 13.38 77.24 13.30 77.06 13.29L76.93 13.29C76.86 13.29 76.75 13.27 76.61 13.27C76.47 13.27 76.33 13.26 76.16 13.26L76.16 9.83L77.85 9.83C78.40 9.83 78.89 9.74 79.32 9.60C79.76 9.45 80.12 9.25 80.43 8.99C80.74 8.72 80.98 8.41 81.13 8.05C81.30 7.69 81.37 7.29 81.37 6.86C81.37 5.92 81.07 5.18 80.49 4.68ZM80.46 7.81C80.33 8.11 80.15 8.36 79.91 8.57C79.67 8.78 79.38 8.95 79.03 9.07C78.68 9.20 78.29 9.25 77.85 9.25L76.16 9.25L76.16 4.48L77.85 4.48C78.78 4.48 79.48 4.69 79.95 5.10C80.42 5.50 80.65 6.09 80.65 6.85C80.65 7.20 80.58 7.52 80.46 7.81ZM98.83 8.86C98.83 8.11 98.70 7.41 98.48 6.79C98.25 6.17 97.93 5.64 97.51 5.19C97.09 4.75 96.60 4.40 96.03 4.16C95.45 3.92 94.79 3.79 94.09 3.79C93.39 3.79 92.76 3.92 92.19 4.16C91.62 4.40 91.11 4.75 90.69 5.19C90.27 5.64 89.95 6.17 89.73 6.79C89.50 7.41 89.38 8.11 89.38 8.86C89.38 9.63 89.50 10.33 89.73 10.95C89.95 11.56 90.27 12.10 90.69 12.54C91.11 12.99 91.62 13.33 92.19 13.57C92.76 13.80 93.39 13.93 94.09 13.93C94.79 13.93 95.45 13.80 96.03 13.57C96.60 13.33 97.09 12.99 97.51 12.54C97.93 12.10 98.25 11.56 98.48 10.95C98.70 10.33 98.83 9.63 98.83 8.86ZM98.07 8.86C98.07 9.56 97.99 10.18 97.79 10.72C97.59 11.27 97.33 11.75 96.98 12.12C96.63 12.50 96.21 12.81 95.72 13.01C95.23 13.20 94.70 13.30 94.09 13.30C93.51 13.30 92.97 13.20 92.48 13.01C91.99 12.81 91.57 12.50 91.22 12.12C90.87 11.75 90.59 11.27 90.40 10.72C90.20 10.18 90.12 9.56 90.12 8.86C90.12 8.18 90.20 7.55 90.40 7.00C90.59 6.45 90.87 5.98 91.22 5.60C91.57 5.22 91.99 4.91 92.48 4.72C92.97 4.52 93.51 4.41 94.09 4.41C94.70 4.41 95.23 4.52 95.72 4.72C96.21 4.91 96.63 5.22 96.98 5.60C97.33 5.98 97.59 6.45 97.79 7.00C97.99 7.55 98.07 8.18 98.07 8.86ZM120.34 3.92L119.80 3.92L119.76 3.92L118.29 3.92L118.29 4.19C118.29 4.34 118.37 4.42 118.55 4.44L118.68 4.44C118.73 4.44 118.83 4.45 118.97 4.45C119.11 4.45 119.25 4.47 119.42 4.47L117.04 12.24C117.01 12.33 116.98 12.43 116.97 12.54C116.96 12.66 116.93 12.75 116.90 12.87C116.87 12.75 116.86 12.63 116.83 12.53L116.75 12.24L113.95 4.10C113.92 4.05 113.89 3.99 113.85 3.96C113.81 3.93 113.75 3.92 113.68 3.92L113.48 3.92C113.41 3.92 113.36 3.93 113.32 3.98C113.27 4.02 113.23 4.05 113.22 4.10L110.42 12.25C110.39 12.35 110.36 12.43 110.33 12.54C110.31 12.64 110.29 12.75 110.26 12.88C110.25 12.78 110.22 12.67 110.19 12.54C110.18 12.43 110.15 12.33 110.12 12.24L107.74 4.47C107.91 4.47 108.05 4.45 108.18 4.45C108.30 4.45 108.39 4.44 108.44 4.44L108.56 4.44C108.74 4.42 108.84 4.34 108.84 4.19L108.84 3.92L107.37 3.92L106.78 3.92L106.18 3.92L106.18 4.19C106.18 4.34 106.27 4.42 106.46 4.44L106.55 4.44C106.60 4.44 106.64 4.45 106.71 4.45C106.78 4.45 106.86 4.47 106.95 4.47L109.90 13.82L110.53 13.82L113.47 5.22C113.51 5.11 113.54 5.00 113.57 4.87C113.60 5.00 113.62 5.11 113.67 5.22L116.59 13.82L117.24 13.82L120.18 4.47C120.26 4.47 120.33 4.45 120.40 4.45C120.47 4.45 120.53 4.44 120.57 4.44L120.67 4.44C120.85 4.42 120.93 4.34 120.93 4.19L120.93 3.92ZM130.17 3.92L128.98 3.92L128.98 4.19C128.98 4.34 129.08 4.42 129.26 4.44L129.40 4.44C129.47 4.44 129.57 4.45 129.71 4.45C129.85 4.45 130.00 4.47 130.17 4.47L130.17 13.26C130.00 13.26 129.85 13.27 129.71 13.27C129.57 13.27 129.47 13.29 129.40 13.29L129.26 13.29C129.08 13.30 129.00 13.38 129.00 13.54L129.00 13.82L130.17 13.82L136.11 13.82L136.11 13.22L136.11 11.76L135.76 11.76C135.56 11.76 135.48 11.89 135.46 12.11C135.46 12.14 135.45 12.19 135.45 12.29C135.45 12.39 135.45 12.53 135.44 12.74C135.42 12.95 135.41 13.09 135.41 13.22L130.89 13.22L130.89 9.09L134.83 9.09L134.83 8.51L130.89 8.51L130.89 4.51L135.41 4.51C135.44 5.12 135.46 5.50 135.46 5.63C135.48 5.85 135.56 5.96 135.76 5.96L136.11 5.96L136.11 4.51L136.11 3.92ZM152.68 13.29L152.59 13.29L152.40 13.29C152.32 13.29 152.24 13.27 152.15 13.27L149.18 9.53C149.10 9.42 148.99 9.32 148.88 9.25C149.31 9.21 149.70 9.11 150.05 8.96C150.40 8.81 150.68 8.61 150.93 8.37C151.17 8.13 151.37 7.85 151.49 7.55C151.62 7.24 151.69 6.89 151.69 6.51C151.69 5.66 151.41 5.03 150.85 4.58C150.29 4.14 149.44 3.92 148.29 3.92L145.88 3.92L144.70 3.92L144.70 4.19C144.70 4.34 144.79 4.42 144.97 4.44L145.11 4.44C145.18 4.44 145.28 4.45 145.42 4.45C145.56 4.45 145.71 4.47 145.88 4.47L145.88 13.26C145.71 13.26 145.56 13.27 145.42 13.27C145.28 13.27 145.18 13.29 145.11 13.29L144.97 13.29C144.79 13.30 144.69 13.38 144.69 13.54L144.69 13.82L145.88 13.82L146.59 13.82L147.77 13.82L147.77 13.54C147.77 13.38 147.67 13.30 147.49 13.29L147.35 13.29C147.28 13.29 147.18 13.27 147.04 13.27C146.90 13.27 146.76 13.26 146.59 13.26L146.59 9.34L147.77 9.34C147.97 9.34 148.11 9.35 148.19 9.39C148.27 9.44 148.36 9.52 148.44 9.62L151.62 13.64C151.68 13.71 151.72 13.75 151.77 13.78C151.83 13.80 151.90 13.82 151.97 13.82L152.04 13.82L152.59 13.82L152.95 13.82L152.95 13.54C152.95 13.38 152.87 13.30 152.68 13.29ZM148.19 8.81L146.59 8.81L146.59 4.48L148.29 4.48C149.17 4.48 149.84 4.66 150.30 5.00C150.77 5.33 150.99 5.87 150.99 6.57C150.99 6.92 150.93 7.21 150.81 7.49C150.68 7.77 150.49 7.99 150.25 8.19C150.01 8.39 149.72 8.55 149.37 8.65C149.02 8.75 148.62 8.81 148.19 8.81ZM168.28 3.92L167.93 3.92L162.34 3.92L161.15 3.92L161.15 4.19C161.15 4.34 161.25 4.42 161.43 4.44L161.57 4.44C161.64 4.44 161.74 4.45 161.88 4.45C162.02 4.45 162.18 4.47 162.34 4.47L162.34 13.26C162.18 13.26 162.02 13.27 161.88 13.27C161.74 13.27 161.64 13.29 161.57 13.29L161.43 13.29C161.25 13.30 161.15 13.38 161.15 13.54L161.15 13.82L162.34 13.82L163.06 13.82L164.23 13.82L164.23 13.54C164.23 13.38 164.15 13.30 163.97 13.29L163.83 13.29C163.76 13.29 163.66 13.27 163.52 13.27C163.38 13.27 163.23 13.26 163.06 13.26L163.06 9.27L166.75 9.27L166.75 8.67L163.06 8.67L163.06 4.51L167.66 4.51C167.69 5.18 167.72 5.56 167.72 5.63C167.73 5.85 167.83 5.96 168.03 5.96L168.36 5.96L168.36 3.92ZM184.80 3.92L184.09 3.92L182.73 3.92L182.73 4.19C182.73 4.34 182.83 4.42 183.01 4.44L183.18 4.44C183.27 4.44 183.41 4.45 183.58 4.45C183.75 4.45 183.92 4.47 184.09 4.47L184.09 10.04C184.09 10.50 184.02 10.92 183.88 11.33C183.74 11.73 183.54 12.08 183.27 12.38C183.01 12.67 182.70 12.89 182.32 13.06C181.94 13.23 181.52 13.31 181.05 13.31C180.57 13.31 180.14 13.23 179.76 13.06C179.38 12.89 179.06 12.66 178.81 12.36C178.54 12.07 178.36 11.72 178.22 11.33C178.08 10.93 178.01 10.50 178.01 10.04L178.01 4.47C178.18 4.47 178.35 4.45 178.51 4.45C178.68 4.45 178.82 4.44 178.92 4.44L179.09 4.44C179.27 4.42 179.37 4.34 179.37 4.19L179.37 3.92L178.01 3.92L177.30 3.92L176.12 3.92L176.12 4.19C176.12 4.34 176.20 4.42 176.39 4.44L176.53 4.44C176.60 4.44 176.69 4.45 176.83 4.45C176.97 4.45 177.13 4.47 177.30 4.47L177.30 10.04C177.30 10.58 177.38 11.09 177.55 11.56C177.72 12.04 177.97 12.46 178.29 12.81C178.61 13.16 179.02 13.44 179.48 13.64C179.94 13.83 180.47 13.93 181.05 13.93C181.62 13.93 182.14 13.83 182.60 13.64C183.06 13.44 183.47 13.16 183.79 12.81C184.11 12.46 184.37 12.04 184.53 11.56C184.70 11.09 184.80 10.58 184.80 10.04L184.80 4.47C184.97 4.47 185.11 4.45 185.25 4.45C185.39 4.45 185.50 4.44 185.57 4.44L185.70 4.44C185.88 4.42 185.98 4.34 185.98 4.19L185.98 3.92ZM200.37 11.97C200.17 11.97 200.09 12.08 200.07 12.31C200.07 12.32 200.07 12.38 200.06 12.43C200.05 12.49 200.05 12.59 200.03 12.71C200.02 12.84 200.00 13.01 199.99 13.20L195.90 13.20L195.90 4.47C196.07 4.47 196.21 4.45 196.35 4.45C196.49 4.45 196.60 4.44 196.67 4.44L196.80 4.44C196.98 4.42 197.08 4.34 197.08 4.19L197.08 3.92L195.90 3.92L195.19 3.92L194.00 3.92L194.00 4.19C194.00 4.34 194.10 4.42 194.28 4.44L194.42 4.44C194.49 4.44 194.59 4.45 194.73 4.45C194.87 4.45 195.02 4.47 195.19 4.47L195.19 13.26C195.02 13.26 194.87 13.27 194.73 13.27C194.59 13.27 194.49 13.29 194.42 13.29L194.28 13.29C194.10 13.30 194.00 13.38 194.00 13.54L194.00 13.82L195.19 13.82L200.47 13.82L200.59 13.82L200.72 13.82L200.72 13.55L200.72 12.99L200.72 11.97L200.44 11.97ZM209.82 13.23C209.82 13.41 209.86 13.57 209.97 13.68C210.08 13.79 210.24 13.85 210.41 13.85L210.52 13.85C210.55 13.85 210.57 13.83 210.60 13.82C210.59 13.99 210.55 14.14 210.49 14.29C210.43 14.45 210.36 14.57 210.29 14.70C210.22 14.83 210.15 14.94 210.08 15.02C210.01 15.11 209.94 15.19 209.90 15.23C209.89 15.25 209.87 15.27 209.86 15.30C209.85 15.33 209.83 15.33 209.83 15.36C209.83 15.40 209.85 15.44 209.89 15.48L210.00 15.58C210.15 15.43 210.31 15.29 210.43 15.11C210.56 14.92 210.67 14.74 210.77 14.55C210.87 14.35 210.92 14.15 210.98 13.96C211.04 13.76 211.05 13.58 211.05 13.38C211.05 13.16 210.99 12.98 210.88 12.84C210.77 12.70 210.62 12.63 210.42 12.63C210.24 12.63 210.10 12.70 209.99 12.81C209.87 12.92 209.82 13.06 209.82 13.23ZM228.02 3.92L227.30 3.92L225.95 3.92L225.95 4.19C225.95 4.34 226.04 4.42 226.23 4.44L226.39 4.44C226.49 4.44 226.63 4.45 226.80 4.45C226.97 4.45 227.14 4.47 227.30 4.47L227.30 10.04C227.30 10.50 227.23 10.92 227.09 11.33C226.95 11.73 226.76 12.08 226.49 12.38C226.23 12.67 225.92 12.89 225.54 13.06C225.16 13.23 224.74 13.31 224.27 13.31C223.79 13.31 223.36 13.23 222.98 13.06C222.60 12.89 222.28 12.66 222.03 12.36C221.76 12.07 221.58 11.72 221.44 11.33C221.30 10.93 221.23 10.50 221.23 10.04L221.23 4.47C221.40 4.47 221.56 4.45 221.73 4.45C221.90 4.45 222.04 4.44 222.14 4.44L222.31 4.44C222.49 4.42 222.59 4.34 222.59 4.19L222.59 3.92L221.23 3.92L220.51 3.92L219.34 3.92L219.34 4.19C219.34 4.34 219.42 4.42 219.60 4.44L219.74 4.44C219.81 4.44 219.91 4.45 220.05 4.45C220.19 4.45 220.35 4.47 220.51 4.47L220.51 10.04C220.51 10.58 220.60 11.09 220.77 11.56C220.93 12.04 221.19 12.46 221.51 12.81C221.83 13.16 222.24 13.44 222.70 13.64C223.16 13.83 223.69 13.93 224.27 13.93C224.84 13.93 225.36 13.83 225.82 13.64C226.28 13.44 226.69 13.16 227.01 12.81C227.33 12.46 227.58 12.04 227.75 11.56C227.92 11.09 228.02 10.58 228.02 10.04L228.02 4.47C228.19 4.47 228.33 4.45 228.47 4.45C228.61 4.45 228.72 4.44 228.79 4.44L228.91 4.44C229.10 4.42 229.19 4.34 229.19 4.19L229.19 3.92ZM242.94 9.91C242.80 9.65 242.61 9.39 242.37 9.21C242.13 9.03 241.88 8.88 241.58 8.75C241.29 8.62 240.97 8.51 240.66 8.41C240.35 8.32 240.04 8.20 239.75 8.11C239.46 7.99 239.19 7.87 238.95 7.71C238.71 7.56 238.53 7.38 238.39 7.15C238.25 6.93 238.17 6.65 238.17 6.31C238.17 6.06 238.22 5.82 238.32 5.59C238.42 5.35 238.56 5.15 238.74 4.97C238.92 4.79 239.15 4.65 239.43 4.55C239.71 4.45 240.02 4.40 240.38 4.40C241.05 4.40 241.67 4.51 242.23 4.75C242.27 5.54 242.30 5.99 242.30 6.06C242.31 6.29 242.40 6.41 242.59 6.41L242.93 6.41L242.93 4.38C242.05 4.00 241.21 3.81 240.38 3.81C239.92 3.81 239.51 3.88 239.15 4.02C238.78 4.16 238.49 4.34 238.25 4.58C238.01 4.82 237.82 5.08 237.69 5.39C237.57 5.70 237.51 6.02 237.51 6.36C237.51 6.78 237.58 7.14 237.72 7.42C237.86 7.70 238.06 7.92 238.29 8.12C238.53 8.32 238.78 8.46 239.08 8.58C239.37 8.71 239.69 8.82 240.00 8.92C240.31 9.02 240.60 9.11 240.91 9.21C241.21 9.31 241.47 9.45 241.71 9.60C241.95 9.76 242.13 9.94 242.27 10.16C242.41 10.39 242.48 10.68 242.48 11.03C242.48 11.35 242.42 11.66 242.31 11.94C242.20 12.22 242.05 12.46 241.84 12.67C241.63 12.88 241.36 13.05 241.05 13.16C240.74 13.29 240.39 13.33 240.00 13.33C239.22 13.33 238.56 13.20 238.03 12.95C238.01 12.75 238.01 12.54 238.00 12.32C237.99 12.10 237.99 11.91 237.97 11.76C237.96 11.61 237.96 11.52 237.96 11.51C237.94 11.28 237.85 11.17 237.65 11.17L237.31 11.17L237.31 13.02L237.31 13.20L237.31 13.38C238.17 13.75 239.05 13.93 239.97 13.93C240.48 13.93 240.93 13.85 241.32 13.69C241.71 13.54 242.05 13.31 242.31 13.05C242.58 12.78 242.80 12.46 242.94 12.10C243.08 11.73 243.15 11.34 243.15 10.92C243.15 10.51 243.08 10.18 242.94 9.91ZM252.60 3.92L251.41 3.92L251.41 4.19C251.41 4.34 251.51 4.42 251.69 4.44L251.83 4.44C251.90 4.44 252.00 4.45 252.14 4.45C252.28 4.45 252.43 4.47 252.60 4.47L252.60 13.26C252.43 13.26 252.28 13.27 252.14 13.27C252.00 13.27 251.90 13.29 251.83 13.29L251.69 13.29C251.51 13.30 251.43 13.38 251.43 13.54L251.43 13.82L252.60 13.82L258.54 13.82L258.54 13.22L258.54 11.76L258.19 11.76C257.99 11.76 257.91 11.89 257.89 12.11C257.89 12.14 257.88 12.19 257.88 12.29C257.88 12.39 257.88 12.53 257.87 12.74C257.85 12.95 257.84 13.09 257.84 13.22L253.32 13.22L253.32 9.09L257.26 9.09L257.26 8.51L253.32 8.51L253.32 4.51L257.84 4.51C257.87 5.12 257.89 5.50 257.89 5.63C257.91 5.85 257.99 5.96 258.19 5.96L258.54 5.96L258.54 4.51L258.54 3.92ZM274.25 3.92L273.90 3.92L268.31 3.92L267.12 3.92L267.12 4.19C267.12 4.34 267.22 4.42 267.40 4.44L267.54 4.44C267.61 4.44 267.71 4.45 267.85 4.45C267.99 4.45 268.14 4.47 268.31 4.47L268.31 13.26C268.14 13.26 267.99 13.27 267.85 13.27C267.71 13.27 267.61 13.29 267.54 13.29L267.40 13.29C267.22 13.30 267.12 13.38 267.12 13.54L267.12 13.82L268.31 13.82L269.02 13.82L270.20 13.82L270.20 13.54C270.20 13.38 270.12 13.30 269.93 13.29L269.79 13.29C269.72 13.29 269.63 13.27 269.49 13.27C269.35 13.27 269.19 13.26 269.02 13.26L269.02 9.27L272.72 9.27L272.72 8.67L269.02 8.67L269.02 4.51L273.63 4.51C273.66 5.18 273.69 5.56 273.69 5.63C273.70 5.85 273.80 5.96 273.99 5.96L274.33 5.96L274.33 3.92ZM290.77 3.92L290.05 3.92L288.69 3.92L288.69 4.19C288.69 4.34 288.79 4.42 288.97 4.44L289.14 4.44C289.24 4.44 289.38 4.45 289.55 4.45C289.72 4.45 289.88 4.47 290.05 4.47L290.05 10.04C290.05 10.50 289.98 10.92 289.84 11.33C289.70 11.73 289.51 12.08 289.24 12.38C288.97 12.67 288.67 12.89 288.29 13.06C287.91 13.23 287.49 13.31 287.01 13.31C286.54 13.31 286.10 13.23 285.73 13.06C285.35 12.89 285.03 12.66 284.77 12.36C284.51 12.07 284.33 11.72 284.19 11.33C284.05 10.93 283.98 10.50 283.98 10.04L283.98 4.47C284.14 4.47 284.31 4.45 284.48 4.45C284.65 4.45 284.79 4.44 284.89 4.44L285.05 4.44C285.24 4.42 285.33 4.34 285.33 4.19L285.33 3.92L283.98 3.92L283.26 3.92L282.09 3.92L282.09 4.19C282.09 4.34 282.17 4.42 282.35 4.44L282.49 4.44C282.56 4.44 282.66 4.45 282.80 4.45C282.94 4.45 283.09 4.47 283.26 4.47L283.26 10.04C283.26 10.58 283.35 11.09 283.51 11.56C283.68 12.04 283.93 12.46 284.26 12.81C284.58 13.16 284.98 13.44 285.45 13.64C285.91 13.83 286.44 13.93 287.01 13.93C287.59 13.93 288.11 13.83 288.57 13.64C289.03 13.44 289.44 13.16 289.76 12.81C290.08 12.46 290.33 12.04 290.50 11.56C290.67 11.09 290.77 10.58 290.77 10.04L290.77 4.47C290.93 4.47 291.07 4.45 291.21 4.45C291.35 4.45 291.47 4.44 291.54 4.44L291.66 4.44C291.84 4.42 291.94 4.34 291.94 4.19L291.94 3.92ZM306.33 11.97C306.14 11.97 306.05 12.08 306.04 12.31C306.04 12.32 306.04 12.38 306.03 12.43C306.01 12.49 306.01 12.59 306.00 12.71C305.98 12.84 305.97 13.01 305.96 13.20L301.87 13.20L301.87 4.47C302.04 4.47 302.18 4.45 302.32 4.45C302.46 4.45 302.57 4.44 302.64 4.44L302.76 4.44C302.95 4.42 303.04 4.34 303.04 4.19L303.04 3.92L301.87 3.92L301.15 3.92L299.96 3.92L299.96 4.19C299.96 4.34 300.06 4.42 300.24 4.44L300.38 4.44C300.45 4.44 300.55 4.45 300.69 4.45C300.83 4.45 300.99 4.47 301.15 4.47L301.15 13.26C300.99 13.26 300.83 13.27 300.69 13.27C300.55 13.27 300.45 13.29 300.38 13.29L300.24 13.29C300.06 13.30 299.96 13.38 299.96 13.54L299.96 13.82L301.15 13.82L306.43 13.82L306.56 13.82L306.68 13.82L306.68 13.55L306.68 12.99L306.68 11.97L306.40 11.97Z"></path></g></svg>